<svg xmlns="http://www.w3.org/2000/svg" width="484" height="85" fill="none"><path fill="#fff" d="M90.236 13.21a28.74 28.74 0 0 0-14.312 3.807C67.997 6.354 55.4 0 42.109 0 18.892 0 0 18.888 0 42.109c0 23.22 18.888 42.109 42.109 42.109 13.825 0 26.112-6.698 33.795-17.014a28.85 28.85 0 0 0 14.332 3.803c15.935 0 28.898-12.963 28.898-28.898S106.171 13.21 90.236 13.21m0 56.607c-4.793 0-9.493-1.24-13.636-3.587a41.9 41.9 0 0 0 7.61-23.553c4.847-.305 8.697-4.34 8.697-9.264s-4.163-9.284-9.284-9.284-9.284 4.166-9.284 9.284c0 5.117 3.842 8.951 8.685 9.26-.31 22.301-18.54 40.35-40.915 40.35-22.374 0-40.922-18.358-40.922-40.922S19.545 1.187 42.109 1.187c12.874 0 25.084 6.137 32.79 16.445-7.984 5.02-13.35 13.837-13.546 23.901-4.85.302-8.704 4.34-8.704 9.264 0 4.925 4.162 9.284 9.283 9.284 5.122 0 9.284-4.162 9.284-9.284 0-5.12-3.838-8.947-8.677-9.26.306-15.015 12.608-27.14 27.697-27.14s27.712 12.43 27.712 27.712-12.43 27.712-27.712 27.712zm-6.61-28.303c-4.463 0-8.097-3.633-8.097-8.097s3.634-8.097 8.098-8.097 8.097 3.633 8.097 8.097-3.633 8.097-8.097 8.097m-21.694 1.19c4.465 0 8.098 3.633 8.098 8.097s-3.633 8.097-8.098 8.097c-4.464 0-8.097-3.633-8.097-8.097s3.633-8.097 8.097-8.097M154.15 28.52c-.498.553-1.056.966-1.656 1.226a4.7 4.7 0 0 1-1.821.387c-.826 0-1.553-.17-2.166-.507a4.64 4.64 0 0 1-1.545-1.353 6.1 6.1 0 0 1-.936-1.902 7.6 7.6 0 0 1-.315-2.166c0-.736.128-1.409.383-2.034a3.43 3.43 0 0 1 1.162-1.511c.515-.379 1.191-.57 2-.57.604 0 1.17.131 1.689.395q.781.396 1.422 1.047c.421.434.787.91 1.085 1.417l.17.294-.783-3.15h-.03a32 32 0 0 0-1.413-.233 10 10 0 0 0-1.476-.107c-1.081 0-2.047.234-2.869.694a5 5 0 0 0-1.944 1.945c-.464.83-.703 1.809-.703 2.92 0 .689.124 1.37.375 2.025.247.655.604 1.26 1.06 1.787.455.532.995.958 1.608 1.273a4.4 4.4 0 0 0 2.022.472c.655 0 1.298-.098 1.91-.298a7 7 0 0 0 1.686-.791c.51-.328.949-.703 1.302-1.103l.038-.042-.217-.145-.03.03zM170.129 21.49a4.9 4.9 0 0 0-1.668-1.264c-.664-.315-1.451-.473-2.336-.473s-1.673.158-2.336.473a5 5 0 0 0-1.669 1.264 5.4 5.4 0 0 0-1.004 1.783 6.37 6.37 0 0 0 0 4.077 5.5 5.5 0 0 0 1.004 1.783 4.9 4.9 0 0 0 1.669 1.264c.663.315 1.447.472 2.336.472s1.677-.157 2.336-.472a4.9 4.9 0 0 0 1.668-1.264 5.4 5.4 0 0 0 1.005-1.783 6.37 6.37 0 0 0 0-4.077 5.5 5.5 0 0 0-1.005-1.783m-3.583 9.098c-.6 0-1.162-.149-1.659-.438a4.5 4.5 0 0 1-1.315-1.192 6.8 6.8 0 0 1-.915-1.702 8.5 8.5 0 0 1-.473-1.95 7.3 7.3 0 0 1 .022-1.948 4.9 4.9 0 0 1 .566-1.694c.28-.498.668-.898 1.144-1.187.477-.29 1.077-.439 1.779-.439.613 0 1.175.15 1.673.439a4.5 4.5 0 0 1 1.319 1.196c.379.502.685 1.072.919 1.698s.392 1.28.472 1.949c.081.664.073 1.319-.021 1.949a5 5 0 0 1-.566 1.698 3.2 3.2 0 0 1-1.157 1.187c-.49.29-1.09.438-1.792.438zM189.808 20.97c.043-.25.141-.467.29-.638.144-.17.383-.28.702-.332l-.009-.098h-2.336l-4.409 7.784-4.498-7.758-.013-.026h-1.502l.043.073q.256.455.57 1.157c.208.464.31 1.017.31 1.639v6.034q.001.448-.068.839c-.042.25-.14.468-.289.638-.145.17-.383.28-.702.332l.008.098h2.354l.008-.098c-.319-.047-.553-.162-.702-.332a1.3 1.3 0 0 1-.289-.638 5 5 0 0 1-.068-.839v-6.877l5.081 8.784h1.502l-1.375-2.38c.069-.203.166-.459.286-.76a23 23 0 0 1 .527-1.197c.226-.485.528-1.085.898-1.787.379-.72.851-1.575 1.405-2.55l.902-1.6v8.367q0 .448-.068.839a1.3 1.3 0 0 1-.29.638q-.224.255-.702.332l.009.098h3.408l.009-.098c-.319-.047-.558-.162-.702-.332a1.3 1.3 0 0 1-.29-.638 5 5 0 0 1-.068-.839v-7q-.001-.448.068-.839zM204.843 19.903l-.008.097c.319.047.553.162.702.332q.225.262.289.639.066.39.068.838v4.873c0 1.191-.289 2.123-.864 2.783-.57.655-1.344.987-2.302.987-.643 0-1.217-.128-1.706-.379-.486-.25-.869-.655-1.132-1.208-.269-.553-.405-1.29-.405-2.183v-4.873q0-.448.068-.838c.043-.251.141-.468.29-.639.144-.17.383-.28.702-.332l-.009-.098h-3.408l-.009.098c.319.047.553.162.702.332q.225.262.29.639c.042.26.068.54.068.838v4.634c0 1.14.17 2.034.502 2.664.336.63.809 1.077 1.404 1.328.592.247 1.294.375 2.077.375q1.174 0 2.068-.434c.596-.29 1.068-.762 1.405-1.4.336-.639.502-1.49.502-2.528v-4.635q-.001-.447.068-.838c.042-.251.14-.468.289-.638.145-.17.383-.281.702-.332l-.008-.098h-2.353zM221.338 19.903l-.009.097c.32.047.554.162.703.332a1.3 1.3 0 0 1 .289.639q.066.39.068.838v6.907l-6.417-8.01q-.18-.217-.243-.378a5 5 0 0 1-.14-.387l-.013-.034h-1.932l.945 1.166v7.736q0 .449-.069.839c-.042.25-.14.468-.289.638-.145.17-.383.281-.702.332l.008.098h2.354l.008-.098c-.319-.047-.553-.162-.702-.332a1.3 1.3 0 0 1-.289-.638 5 5 0 0 1-.068-.838v-7.435L222.555 31l.089.11v-9.298q0-.447.068-.838c.043-.251.141-.468.29-.638.145-.17.383-.281.702-.332l-.008-.098h-2.354zM232.454 20.97c.043-.25.141-.467.29-.638.144-.17.383-.28.702-.332l-.009-.098h-3.408l-.009.098c.319.047.553.162.702.332q.225.262.29.639c.042.26.068.54.068.838v7q0 .449-.068.839a1.3 1.3 0 0 1-.29.638c-.144.17-.383.281-.702.332l.009.098h3.408l.009-.098c-.319-.047-.553-.162-.702-.332a1.3 1.3 0 0 1-.29-.638 5 5 0 0 1-.068-.838v-7.001q-.001-.448.068-.838M248.246 21.588a4.9 4.9 0 0 0-1.669-1.226c-.659-.302-1.447-.455-2.336-.455h-4.451l-.009.097c.319.047.553.162.702.332a1.3 1.3 0 0 1 .29.639c.042.26.068.54.068.838v7q0 .449-.068.839a1.3 1.3 0 0 1-.29.638c-.144.17-.383.281-.702.332l.009.098h4.451c.889 0 1.672-.153 2.336-.46a4.8 4.8 0 0 0 1.669-1.225 5.2 5.2 0 0 0 1.004-1.736c.221-.643.336-1.311.336-1.984 0-.672-.111-1.344-.336-1.987a5.3 5.3 0 0 0-1.004-1.736zm-3.584 8.864c-.613 0-1.149-.09-1.587-.268q-.646-.264-.928-.592v-9.439h1.673c.612 0 1.174.145 1.672.43.498.29.945.681 1.319 1.166a6.4 6.4 0 0 1 .92 1.656c.234.612.391 1.255.472 1.906s.072 1.29-.021 1.902a4.7 4.7 0 0 1-.566 1.652c-.281.48-.673.872-1.158 1.157-.489.285-1.094.43-1.791.43zM264.158 29.627a10 10 0 0 1-.392-.835l-3.94-9.553-.022-.052-1.174.622.702 1.668-2.877 7.315c-.179.447-.4.851-.659 1.196-.251.34-.639.553-1.145.63l.008.098h2.371l.008-.098c-.293-.047-.481-.157-.561-.32q-.123-.257-.035-.629.09-.384.269-.838l.74-1.902h4.128l.787 1.902q.179.434.256.83.07.383-.056.638-.122.248-.583.32l.009.097h3.502l.009-.098c-.332-.051-.609-.162-.822-.336a2.1 2.1 0 0 1-.532-.655zm-2.668-2.95h-3.928l1.919-4.872zM280.164 21.588a4.9 4.9 0 0 0-1.668-1.226c-.66-.302-1.447-.455-2.337-.455h-4.451l-.009.097c.32.047.554.162.703.332q.223.262.289.639c.042.26.068.54.068.838v7q.001.449-.068.839a1.3 1.3 0 0 1-.289.638c-.145.17-.383.281-.703.332l.009.098h4.451c.89 0 1.673-.153 2.337-.46a4.8 4.8 0 0 0 1.668-1.225 5.2 5.2 0 0 0 1.004-1.736c.221-.643.336-1.311.336-1.984 0-.672-.11-1.344-.336-1.987a5.3 5.3 0 0 0-1.004-1.736zm-3.583 8.864c-.613 0-1.149-.09-1.588-.268q-.646-.264-.928-.592v-9.439h1.673c.613 0 1.174.145 1.672.43.498.29.945.681 1.32 1.166.378.485.685 1.043.919 1.656.234.612.391 1.255.472 1.906s.073 1.29-.021 1.902a4.7 4.7 0 0 1-.566 1.652c-.281.48-.672.872-1.158 1.157-.489.285-1.093.43-1.791.43zM296.348 27.865c-.14.23-.328.498-.553.796a4.9 4.9 0 0 1-.881.86c-.358.271-.8.501-1.319.68-.524.179-1.154.268-1.877.268h-1.264v-5.924h2.277q.447 0 .838.068c.251.043.468.14.638.29q.256.224.332.702l.098-.009v-2.353l-.098-.008q-.07.479-.332.702a1.3 1.3 0 0 1-.638.29q-.39.068-.838.067h-2.277v-4.14h1.264c.728 0 1.357.089 1.877.268.519.178.966.408 1.319.685.357.276.655.57.881.868.225.294.413.562.557.796l.166.272-.779-3.14h-7.643l-.008.097c.319.047.553.162.702.332q.225.262.289.639c.043.26.069.54.069.838v7q0 .449-.069.839c-.042.25-.14.468-.289.638-.145.17-.383.281-.702.332l.008.098h6.231c.446 0 .761.025.932.072.161.047.263.124.306.243l.055.145.902-3.588-.17.277zM149.38 63.178l.242 2.025q-1.565-.025-2.638-.574-1.073-.55-1.698-1.43a4.6 4.6 0 0 1-.805-1.894 4.65 4.65 0 0 1 .073-2.013c.17-.668.481-1.268.927-1.809q.672-.805 1.745-1.22l3.051-7.742-1.123-2.685 1.758-.928 6.374 15.46q.295.708.635 1.358c.229.43.519.796.88 1.086q.537.44 1.366.561h-5.668c.519-.08.855-.268 1-.561q.219-.441.098-1.086a7 7 0 0 0-.417-1.357l-.145-.392a5.8 5.8 0 0 0-1.345-1.979 6.6 6.6 0 0 0-2.038-1.344 6.2 6.2 0 0 0-2.404-.49q-1.416 0-2.384.536-.964.536-1.502 1.38a4.5 4.5 0 0 0-.672 1.782 4.15 4.15 0 0 0 .11 1.783q.243.843.83 1.38.589.535 1.49.535.536-.001 1.123-.11a9 9 0 0 0 1.124-.281zm4.983-4.86-3.958-9.478-2.86 7.328c.243-.08.511-.14.796-.182.285-.043.583-.06.89-.06q1.512.001 2.783.621a8.1 8.1 0 0 1 2.345 1.77zM169.994 63.373h-7.205q.805-.12 1.183-.561c.251-.294.417-.651.489-1.077a8 8 0 0 0 .111-1.366V49.036q0-.735-.111-1.366a2.16 2.16 0 0 0-.489-1.077q-.378-.44-1.183-.561h7.205q2.149-.002 3.749.732t2.672 1.966a8.4 8.4 0 0 1 1.613 2.783 9.7 9.7 0 0 1 .537 3.187q0 1.636-.537 3.188a8.3 8.3 0 0 1-1.613 2.783c-.714.821-1.608 1.477-2.672 1.966q-1.6.733-3.749.732zm-.685-17.099h-2.784v15.389q.465.56 1.549 1 1.087.439 2.601.438c1.157 0 2.136-.234 2.945-.706a5.2 5.2 0 0 0 1.906-1.907q.697-1.196.928-2.698.23-1.5.038-3.102a13.2 13.2 0 0 0-.77-3.103c-.383-1-.885-1.902-1.502-2.698a7.4 7.4 0 0 0-2.162-1.906q-1.232-.708-2.749-.707M191.464 63.616h-2.102l-6.52-14.605q-.317-.708-.659-1.358a4 4 0 0 0-.83-1.085 2.34 2.34 0 0 0-1.196-.562h5.447q-.757.121-.991.562-.232.44-.098 1.085.132.647.451 1.358l5.715 12.847 3.051-7.694q.658-1.635.817-2.88.16-1.244.013-2.15-.146-.905-.502-1.562a10 10 0 0 0-.719-1.149l1.757-.927c.686.961 1.026 1.846 1.026 2.664q0 .733-.281 1.625a20 20 0 0 1-.685 1.83q-.402.94-.804 1.809a35 35 0 0 0-.673 1.528l-2.86 7.23.635 1.442zM208.414 63.616c-1.434 0-2.681-.251-3.749-.757q-1.6-.759-2.672-2.026a8.7 8.7 0 0 1-1.613-2.856 10.2 10.2 0 0 1-.536-3.272q0-1.685.536-3.273a8.6 8.6 0 0 1 1.613-2.86q1.074-1.27 2.672-2.025c1.068-.502 2.315-.758 3.749-.758s2.681.251 3.75.758q1.6.757 2.672 2.026a8.7 8.7 0 0 1 1.613 2.86q.536 1.587.536 3.272a10.2 10.2 0 0 1-.536 3.272 8.6 8.6 0 0 1-1.613 2.856q-1.074 1.271-2.672 2.026c-1.069.506-2.315.757-3.75.757m-.68-17.537c-1.158 0-2.128.238-2.92.719a5.3 5.3 0 0 0-1.881 1.953q-.697 1.233-.928 2.77a12 12 0 0 0-.038 3.175q.197 1.636.77 3.175.576 1.54 1.49 2.77a7.2 7.2 0 0 0 2.149 1.954c.821.48 1.732.719 2.724.719q1.734.002 2.944-.72a5.25 5.25 0 0 0 1.907-1.953 8 8 0 0 0 .928-2.77q.23-1.54.038-3.175a13.8 13.8 0 0 0-.77-3.174 11 11 0 0 0-1.502-2.77 7.4 7.4 0 0 0-2.162-1.954q-1.232-.72-2.749-.72M222.946 53.309c0 1.187.17 2.375.515 3.553q.512 1.771 1.451 3.235.939 1.465 2.273 2.357 1.333.892 2.991.89.976-.002 1.907-.366.925-.365 1.672-1.247.745-.88 1.183-2.456c.294-1.05.439-2.383.439-3.991v-1.392h-6.154v-.243h8.111v7.669q.001.734.111 1.136a.92.92 0 0 0 .489.6c.251.132.647.234 1.183.32h-3.736v-2.37q-1.051 1.392-2.6 2.012a8.8 8.8 0 0 1-3.286.621q-2.61 0-4.545-1.183a8 8 0 0 1-2.978-3.213c-.703-1.353-1.052-2.864-1.052-4.545q.002-1.781.609-3.468a8.7 8.7 0 0 1 1.843-3.004q1.231-1.321 3.064-1.954a7.8 7.8 0 0 1 1.587-.379q.83-.109 1.685-.11c.796 0 1.596.055 2.392.17q1.195.173 2.319.366l1.124 4.52a12 12 0 0 0-1.771-2.307 9.1 9.1 0 0 0-2.319-1.724 6 6 0 0 0-2.77-.66c-1.383 0-2.494.333-3.332.988-.839.66-1.452 1.536-1.83 2.626q-.575 1.636-.575 3.54zM247.518 63.178l.243 2.025q-1.565-.025-2.639-.574-1.072-.55-1.698-1.43a4.6 4.6 0 0 1-.804-1.894 4.67 4.67 0 0 1 1-3.822q.672-.805 1.745-1.22l3.051-7.742-1.123-2.685 1.757-.928 6.375 15.46q.295.708.634 1.358c.23.43.519.796.881 1.086q.537.44 1.366.561h-5.668c.519-.08.855-.268 1-.561q.219-.441.098-1.086a7 7 0 0 0-.417-1.357l-.145-.392a5.9 5.9 0 0 0-1.345-1.979 6.6 6.6 0 0 0-2.038-1.344 6.2 6.2 0 0 0-2.405-.49q-1.414 0-2.383.536-.965.536-1.502 1.38a4.5 4.5 0 0 0-.672 1.782 4.15 4.15 0 0 0 .11 1.783q.243.843.83 1.38.589.535 1.49.535.536-.001 1.123-.11a9 9 0 0 0 1.124-.281zm4.984-4.86-3.958-9.478-2.86 7.328c.243-.08.511-.14.796-.182.285-.043.583-.06.889-.06q1.514.001 2.783.621a8.1 8.1 0 0 1 2.345 1.77zM262.932 48.109v12.26q.001.735.111 1.366c.072.421.234.783.489 1.077q.378.44 1.183.561h-3.808q.805-.12 1.183-.561c.251-.294.417-.651.489-1.077q.11-.639.111-1.366V47.815l-1.443-1.783h2.907q.12.364.229.634.11.269.405.634l10.528 13.141V49.036q0-.735-.111-1.366a2.2 2.2 0 0 0-.489-1.077q-.378-.44-1.183-.561h3.809q-.805.12-1.183.562a2.2 2.2 0 0 0-.49 1.076q-.109.639-.11 1.366v14.827zM287.505 63.373H280.3q.805-.12 1.183-.561c.251-.294.417-.651.489-1.077a8 8 0 0 0 .111-1.366V49.036q0-.735-.111-1.366a2.16 2.16 0 0 0-.489-1.077q-.378-.44-1.183-.561h7.205c1.434 0 2.681.242 3.749.732q1.601.734 2.672 1.966a8.4 8.4 0 0 1 1.613 2.783 9.7 9.7 0 0 1 .537 3.187q0 1.636-.537 3.188a8.3 8.3 0 0 1-1.613 2.783c-.714.821-1.608 1.477-2.672 1.966q-1.6.733-3.749.732zm-.685-17.099h-2.784v15.389q.465.56 1.549 1 1.087.439 2.601.438 1.733.001 2.945-.706a5.2 5.2 0 0 0 1.906-1.907q.697-1.196.928-2.698.23-1.5.038-3.102a13.2 13.2 0 0 0-.77-3.103c-.383-1-.885-1.902-1.502-2.698a7.4 7.4 0 0 0-2.162-1.906q-1.232-.708-2.749-.707M307.484 63.642q-1.882 0-3.272-.758a7.1 7.1 0 0 1-2.333-2.026 9.1 9.1 0 0 1-1.404-2.855 11.6 11.6 0 0 1-.464-3.285q-.001-1.697.464-3.286a9.1 9.1 0 0 1 1.404-2.86 7 7 0 0 1 2.333-2.025c.927-.502 2.017-.758 3.272-.758q1.882-.001 3.273.758a7.1 7.1 0 0 1 2.332 2.026 9.1 9.1 0 0 1 1.404 2.86q.465 1.588.464 3.285.001 1.696-.464 3.285a9 9 0 0 1-1.404 2.855 7 7 0 0 1-2.332 2.026c-.928.507-2.022.758-3.273.758m-.685-17.563q-1.441-.002-2.43.732-.991.734-1.541 1.966-.55 1.23-.719 2.762a13.7 13.7 0 0 0 .026 3.174c.132 1.098.361 2.158.698 3.175a12.3 12.3 0 0 0 1.281 2.762q.78 1.232 1.808 1.966a3.78 3.78 0 0 0 2.247.732q1.467 0 2.468-.732 1.002-.735 1.562-1.966.561-1.23.72-2.762a14.2 14.2 0 0 0-.039-3.175 16.3 16.3 0 0 0-.698-3.174 12 12 0 0 0-1.293-2.762q-.793-1.233-1.835-1.966a3.84 3.84 0 0 0-2.259-.732zM332.228 63.127h2.123q1.781.001 3.064-.439 1.282-.44 2.162-1.11a7.6 7.6 0 0 0 1.443-1.405q.562-.734.902-1.294l-1.268 5.056q-.122-.318-.549-.438-.426-.123-1.528-.124h-10.086q.805-.12 1.183-.561c.251-.294.417-.651.49-1.077q.109-.639.11-1.366V49.036q-.001-.735-.11-1.366a2.17 2.17 0 0 0-.49-1.077q-.378-.44-1.183-.561h12.312l1.123 4.52q-.343-.561-.902-1.294a8 8 0 0 0-1.443-1.418q-.88-.683-2.162-1.123t-3.064-.438h-2.123v6.864h3.762q.733-.001 1.366-.11a2.16 2.16 0 0 0 1.076-.49q.44-.378.562-1.183v3.809q-.121-.806-.562-1.183a2.2 2.2 0 0 0-1.076-.49 8 8 0 0 0-1.366-.11h-3.762v9.745zM346.636 48.938v11.43q.002.735.111 1.367c.072.421.234.783.489 1.077q.378.44 1.183.561h-3.808q.805-.12 1.183-.561c.251-.294.417-.651.489-1.077a8 8 0 0 0 .111-1.366v-9.771q.001-1.538-.515-2.685a22 22 0 0 0-.928-1.881h2.247l7.354 12.677 7.179-12.677h3.736q-.805.12-1.183.562a2.2 2.2 0 0 0-.489 1.076 8 8 0 0 0-.111 1.366V60.37q.002.735.111 1.366c.072.421.234.783.489 1.077q.378.44 1.183.561h-5.519q.805-.12 1.183-.561c.251-.294.417-.651.489-1.077a8 8 0 0 0 .111-1.366V46.52l-1.613 2.86a178 178 0 0 0-2.272 4.128 62 62 0 0 0-1.451 2.894 47 47 0 0 0-.856 1.94 24 24 0 0 0-.477 1.268l2.175 3.762h-2.247zM386.009 53.139q.734-.002 1.366-.111a2.17 2.17 0 0 0 1.077-.49q.44-.377.561-1.182v3.808q-.121-.805-.561-1.183a2.2 2.2 0 0 0-1.077-.49 8 8 0 0 0-1.366-.11h-3.762v6.988q0 .735.111 1.366c.072.421.234.783.489 1.077q.378.44 1.183.561h-5.52q.806-.12 1.184-.561c.251-.294.417-.651.489-1.077q.11-.639.111-1.366V49.036q-.001-.735-.111-1.366a2.16 2.16 0 0 0-.489-1.077q-.378-.44-1.184-.561h12.312l1.123 4.52a15 15 0 0 0-.902-1.294 7.9 7.9 0 0 0-1.442-1.418q-.88-.683-2.162-1.123-1.284-.44-3.064-.438h-2.124v6.864h3.762zM400.347 63.178l.242 2.025q-1.564-.025-2.638-.574-1.072-.55-1.698-1.43a4.6 4.6 0 0 1-.804-1.894 4.65 4.65 0 0 1 1-3.822q.67-.805 1.744-1.22l3.052-7.742-1.124-2.685 1.758-.928 6.375 15.46q.294.708.634 1.358c.23.43.519.796.881 1.086q.536.44 1.366.561h-5.669c.519-.08.856-.268 1-.561q.218-.441.098-1.086a7 7 0 0 0-.417-1.357l-.144-.392a5.9 5.9 0 0 0-1.345-1.979 6.6 6.6 0 0 0-2.039-1.344 6.2 6.2 0 0 0-2.404-.49c-.945 0-1.736.179-2.383.536q-.965.536-1.503 1.38a4.5 4.5 0 0 0-.672 1.782 4.2 4.2 0 0 0 .111 1.783q.242.843.83 1.38.588.535 1.489.535.537-.001 1.124-.11a9 9 0 0 0 1.123-.281zm4.983-4.86-3.958-9.478-2.859 7.328c.242-.08.51-.14.795-.182a6 6 0 0 1 .89-.06q1.512.001 2.783.621a8.1 8.1 0 0 1 2.345 1.77zM415.518 48.938v11.43q0 .735.111 1.367c.072.421.234.783.489 1.077q.378.44 1.183.561h-3.809q.806-.12 1.183-.561.378-.44.49-1.077.109-.639.11-1.366v-9.771q.001-1.538-.515-2.685a22 22 0 0 0-.927-1.881h2.247l7.353 12.677 7.18-12.677h3.736q-.805.12-1.183.562a2.2 2.2 0 0 0-.489 1.076 8 8 0 0 0-.111 1.366V60.37q0 .735.111 1.366c.072.421.234.783.489 1.077q.378.44 1.183.561h-5.519q.805-.12 1.183-.561c.251-.294.417-.651.489-1.077q.11-.639.111-1.366V46.52L429 49.381a183 183 0 0 0-2.273 4.128 64 64 0 0 0-1.451 2.894 47 47 0 0 0-.855 1.94q-.306.76-.477 1.268l2.175 3.762h-2.247zM440.769 49.037v11.332q.001.735.111 1.366.107.635.489 1.077.378.44 1.183.562h-5.519q.805-.122 1.183-.562c.251-.294.417-.651.489-1.077q.11-.637.111-1.366V49.036q0-.733-.111-1.366a2.16 2.16 0 0 0-.489-1.076q-.378-.44-1.183-.562h5.519q-.805.12-1.183.562a2.2 2.2 0 0 0-.489 1.076q-.11.639-.111 1.366m-.438-6.695h2.124q-1.637 1.738-3.86 3.15a10 10 0 0 0 1.038-1.6q.403-.794.698-1.55M463.023 49.036V60.37q.001.735.11 1.366c.073.421.234.783.49 1.077q.378.44 1.183.561h-5.52q.805-.12 1.183-.561c.251-.294.417-.651.49-1.077q.109-.639.11-1.366V49.036q-.001-.735-.11-1.366a2.17 2.17 0 0 0-.49-1.077q-.378-.44-1.183-.561h5.52q-.805.12-1.183.562a2.2 2.2 0 0 0-.49 1.076q-.109.639-.11 1.366M473.211 63.178l.243 2.025q-1.565-.025-2.639-.574-1.072-.55-1.698-1.43a4.6 4.6 0 0 1-.804-1.894 4.65 4.65 0 0 1 1-3.822q.672-.805 1.745-1.22l3.051-7.742-1.123-2.685 1.757-.928 6.375 15.46q.295.708.634 1.358c.23.43.519.796.881 1.086q.536.44 1.366.561h-5.668q.78-.12 1-.561.217-.441.097-1.086a7 7 0 0 0-.417-1.357l-.144-.392a5.9 5.9 0 0 0-1.345-1.979 6.6 6.6 0 0 0-2.038-1.344 6.2 6.2 0 0 0-2.405-.49c-.945 0-1.736.179-2.383.536q-.965.536-1.502 1.38a4.5 4.5 0 0 0-.673 1.782 4.2 4.2 0 0 0 .111 1.783q.243.843.83 1.38.588.535 1.489.535.537-.001 1.124-.11a9 9 0 0 0 1.123-.281zm4.979-4.86-3.958-9.478-2.859 7.328c.242-.08.51-.14.795-.182a6 6 0 0 1 .89-.06q1.512.001 2.783.621a8.1 8.1 0 0 1 2.345 1.77zM444.566 46.032h5.511q-.805.12-1.183.562a2.23 2.23 0 0 0-.49 1.072 8 8 0 0 0-.11 1.366v14.073h2.123q1.783.002 3.06-.438 1.283-.441 2.158-1.11a7.5 7.5 0 0 0 1.438-1.405q.564-.734.902-1.294l-1.268 5.048q-.122-.319-.549-.439-.426-.121-1.523-.123h-10.073q.805-.121 1.183-.562a2.23 2.23 0 0 0 .489-1.072q.11-.633.111-1.367V49.029q-.001-.735-.111-1.366a2.15 2.15 0 0 0-.489-1.073q-.378-.44-1.183-.561z"></path></svg>